<svg class="Icons_icon__sOtdB Logo_icon__k3KMW" style="--desktop-size-width:10.416666666666668vw;--desktop-size-height:2.7347916534220547vw;--mobile-size-width:38.46153846153847vw;--mobile-size-height:10.097692258789124vw" viewBox="0 0 471.889 123.895" xmlns="http://www.w3.org/2000/svg"><path d="M0 0v123.895h437.12V89.126h34.769V0z" fill="#fff"></path><path d="M431.294 73.51c14.522 0 22.555-7.223 22.555-18.1 0-20.123-30.588-15.092-30.588-21.744 0-2.356 1.784-3.734 5.842-3.734a25.093 25.093 0 0115.822 5.679l7.624-10.462c-5.763-4.948-13.307-7.546-21.992-7.546-13.873 0-21.5 8.114-21.5 17.2 0 20.853 30.589 14.931 30.589 22.071 0 2.677-2.918 4.3-7.626 4.3a24.511 24.511 0 01-17.367-7.14l-7.381 10.873c5.435 5.112 13.061 8.6 24.017 8.6m-46.246-20.932h-13.711l6.9-20.366zm22.313 19.961l-20.364-54.121h-17.608l-20.368 54.121h15.823l2.679-7.791h21.338l2.677 7.791zm-81.3.974c13.064 0 20.122-7.628 23.612-14.524l-12.009-5.682a13 13 0 01-11.6 7.872c-8.846 0-15.092-6.817-15.092-15.66 0-8.925 6.246-15.659 15.092-15.659a13 13 0 0111.6 7.871l12.007-5.762c-3.49-7.058-10.547-14.443-23.612-14.443-16.634 0-29.292 11.278-29.292 27.993 0 16.635 12.658 27.995 29.292 27.995m-60.532 0c17.365 0 25.479-9.494 25.479-22.964V18.415h-14.117v31.727c0 6.409-3.9 11.034-11.361 11.034-7.545 0-11.44-4.624-11.44-11.034V18.415h-14.2v32.214c0 13.306 8.276 22.882 25.642 22.882m-29.536-.975v-12.17h-21.746V18.415h-13.958v54.121z" fill="#000"></path><path d="M234.487 97.403a8.252 8.252 0 018.478-8.533 7.316 7.316 0 016.254 3.264l-1.706.965a5.542 5.542 0 00-4.548-2.4c-3.609 0-6.353 2.744-6.353 6.7a6.346 6.346 0 006.353 6.7 5.608 5.608 0 004.548-2.4l1.73.939a7.416 7.416 0 01-6.278 3.287 8.246 8.246 0 01-8.478-8.522zm-38.155 0c0-4.875 3.312-8.533 8.182-8.533s8.211 3.658 8.211 8.533-3.337 8.527-8.211 8.527-8.182-3.658-8.182-8.527zm2.126 0c0 3.832 2.348 6.7 6.056 6.7 3.688 0 6.086-2.867 6.086-6.7 0-3.861-2.4-6.7-6.086-6.7-3.704-.004-6.056 2.838-6.056 6.7zm-20.3 0c0-4.875 3.312-8.533 8.182-8.533s8.211 3.658 8.211 8.533-3.337 8.527-8.211 8.527-8.181-3.658-8.181-8.527zm2.126 0c0 3.832 2.348 6.7 6.056 6.7 3.688 0 6.086-2.867 6.086-6.7 0-3.861-2.4-6.7-6.086-6.7-3.707-.004-6.055 2.838-6.055 6.7zm-52.442 0c0-4.875 3.312-8.533 8.187-8.533s8.206 3.658 8.206 8.533-3.337 8.527-8.206 8.527-8.186-3.658-8.186-8.527zm2.126 0c0 3.832 2.353 6.7 6.061 6.7 3.683 0 6.081-2.867 6.081-6.7 0-3.861-2.4-6.7-6.081-6.7-3.707-.004-6.06 2.838-6.06 6.7zm-20.3 0c0-4.875 3.312-8.533 8.182-8.533s8.211 3.658 8.211 8.533-3.342 8.527-8.211 8.527-8.18-3.658-8.18-8.527zm2.126 0c0 3.832 2.348 6.7 6.056 6.7 3.683 0 6.086-2.867 6.086-6.7 0-3.861-2.4-6.7-6.086-6.7-3.706-.004-6.054 2.838-6.054 6.7zm-34.961 0a8.252 8.252 0 018.478-8.533 7.325 7.325 0 016.259 3.264l-1.706.965a5.558 5.558 0 00-4.553-2.4c-3.609 0-6.353 2.744-6.353 6.7a6.346 6.346 0 006.353 6.7 5.624 5.624 0 004.553-2.4l1.73.939a7.425 7.425 0 01-6.283 3.287 8.246 8.246 0 01-8.476-8.522zm-14.07 5.908l1.236-1.582a6.81 6.81 0 005.171 2.373c2.941 0 3.881-1.582 3.881-2.867 0-4.252-9.769-1.879-9.769-7.762 0-2.725 2.427-4.6 5.69-4.6a7.768 7.768 0 015.833 2.324l-1.236 1.508a6.239 6.239 0 00-4.776-1.973c-1.948 0-3.386 1.059-3.386 2.615 0 3.713 9.769 1.588 9.769 7.742 0 2.373-1.631 4.844-6.081 4.844a8.2 8.2 0 01-6.33-2.622zm353.1 2.322V90.971h-5.216v-1.824h12.512v1.824h-5.245v14.662zm-9.17 0l-9.62-13.154v13.154h-2.052V89.149h2.1l9.5 12.879V89.149h2.052v16.486zm-25 0V89.149h10.8v1.824h-8.75v5.314h8.577v1.834h-8.577v5.686h8.75v1.828zm-11.721 0V89.149h2.052v14.658h7.663v1.828zm-3.49 0l-1.458-3.682h-8.206l-1.458 3.682h-2.348l6.649-16.486h2.546l6.624 16.486zm-9.047-5.486h7l-3.51-8.9zm-10.337 5.486V90.971h-5.216v-1.824H354.4v1.824h-5.24v14.662zm-22.622 0V89.149h10.807v1.824h-8.75v5.314h8.577v1.834h-8.577v7.514zm-13.328 0V89.149h10.807v1.824h-8.745v5.314h8.582v1.834h-8.582v5.686h8.755v1.828zm-14.44 0V90.971h-5.216v-1.824h12.518v1.824h-5.24v14.662zm-6.18 0l-1.458-3.682h-8.211l-1.458 3.682h-2.348l6.649-16.486h2.551l6.624 16.486zm-9.052-5.486h7l-3.505-8.9zm-16.047 5.486V89.149h10.807v1.824h-8.75v5.314h8.577v1.834h-8.577v5.686h8.75v1.828zm-4.771 0l-4.177-6.549h-3.317v6.549h-2.052v-16.49h6.624c3.021 0 5.2 1.928 5.2 4.967a4.579 4.579 0 01-4.3 4.8l4.449 6.723zm-7.495-8.359h4.331a3.155 3.155 0 100-6.3h-4.331zm-28.456 8.359l-4.177-6.549h-3.317v6.549h-2.052v-16.49h6.629c3.016 0 5.191 1.928 5.191 4.967a4.575 4.575 0 01-4.3 4.8l4.449 6.723zm-7.495-8.359h4.331a3.155 3.155 0 100-6.3h-4.331zm-48.487 8.359l-6.649-16.486h2.348l5.562 14.238 5.567-14.238h2.357l-6.624 16.486zm-22.326 0V89.149h2.052v14.658h7.668v1.828zm-41.24 0v-7.562h-9.645v7.563h-2.052V89.149h2.052v7.09h9.645v-7.09h2.052v16.486zm-45.571 0l-6.254-7.42-1.656 1.885v5.535H49.64V89.149h2.052v8.5l7.292-8.5h2.571l-6.872 7.807 7.49 8.68zm-13.724 0l-1.458-3.682H36.21l-1.458 3.682H32.41l6.649-16.486h2.546l6.624 16.486zm-9.047-5.486h7l-3.51-8.9zm-11.969 5.486L18.21 89.149h2.348l5.562 14.238 5.562-14.238h2.348l-6.624 16.486zm281.13 0V89.147h2.052v16.486zM18.21 64.908l7.386-10.871a24.5 24.5 0 0017.367 7.139c4.7 0 7.623-1.621 7.623-4.3 0-7.139-30.591-1.217-30.591-22.068 0-9.086 7.628-17.205 21.5-17.205 8.681 0 16.225 2.6 21.989 7.549l-7.628 10.467a25.09 25.09 0 00-15.82-5.676c-4.059 0-5.843 1.375-5.843 3.732 0 6.65 30.586 1.617 30.586 21.742 0 10.877-8.028 18.094-22.553 18.094-10.952-.001-18.58-3.491-24.016-8.603zm146.7 7.627V30.59h-15.172V18.418h44.221V30.59h-15.093v41.945zm-35.214 0L106.81 41.219v31.316H92.857V18.418h14.361l21.91 29.775V18.418h14.035v54.117zm-58.419 0V33.349H83.77v39.188zm-.895-49.9a7.181 7.181 0 0114.361 0 7.181 7.181 0 11-14.361 0z" fill="#FF6600"></path></svg>