<svg class="yuvertalogo__title" height="226px" version="1.1" viewBox="0 0 1093 226" width="1093px" xmlns="http://www.w3.org/2000/svg"><title>Yuverta</title><g fill-rule="nonzero" stroke="none"><path d="M281.3,221.2 L281.3,208.2 C271.2,218.9 256.7,225.9 238.3,225.9 C204.5,225.9 184.6,202.2 184.6,164.6 L184.6,66.7 L228.8,66.7 L228.8,156.7 C228.8,176.3 236.7,186.4 253.1,186.4 C270.2,186.4 281.2,173.4 281.2,151 L281.2,66.7 L325.4,66.7 L325.4,221.2 L281.3,221.2 Z"></path><polygon points="425.2 164.4 464.4 66.8 510.2 66.8 448 221.3 402.2 221.3 340.3 66.8 386.1 66.8"></polygon><path d="M759.7,61.9 C742.6,61.9 729.7,68.5 720.8,79.6 L720.8,66.6 L676.6,66.6 L676.6,221.1 L720.8,221.1 L720.8,138.7 C720.8,113.1 730.6,102.4 743.2,102.4 C755,102.4 761,110 761.2,125.8 L804.5,125.8 C804.9,79.3 787.2,61.9 759.7,61.9 Z"></path><path d="M1025.8,61.9 C990.7,61.9 960.1,82.1 962,120.7 L1001.6,120.7 C1002.5,106.6 1011.2,97.6 1026.8,97.6 C1042.3,97.6 1050.5,106.1 1050.5,116.6 L1050.5,122 L1020.8,127.4 C982.3,134 961.4,149.5 961.4,179.8 C961.4,201.9 978.8,225.9 1013.5,225.9 C1033.1,225.9 1045.4,215.5 1050.8,206 L1050.8,221.2 L1091.9,221.2 L1091.9,117.8 C1091.8,84.6 1069.1,61.9 1025.8,61.9 Z M1050.5,158.5 C1050.5,177.5 1038.8,189.1 1022.1,189.1 C1010.7,189.1 1003.1,183.1 1003.1,174.3 C1003.1,162.6 1013.8,158.5 1026.5,156 L1050.5,151.6 L1050.5,158.5 Z"></path><path d="M585.5,188.2 C565.3,188.2 550.8,176.2 546.3,155 L601,155 L653.7,155 L653.7,138 C653.7,93.5 626.2,62.2 583.3,62.2 C536.5,62.2 505.9,97.9 505.9,144.3 C505.9,190.7 537.2,225.8 584.9,225.8 C621.2,225.8 651.6,203.4 656.9,170.2 L614.9,170.2 C609.7,181.5 599.1,188.2 585.5,188.2 Z M583.3,98.5 C602.6,98.5 614.9,110.8 615.5,124.7 L547.3,124.7 C552.7,108.3 565.9,98.5 583.3,98.5 Z"></path><path d="M946.1,163.6 L904.4,163.6 C904.4,178.4 897.1,186.3 886.1,186.3 C875.4,186.3 868.1,179.7 868.1,167.7 L868.1,104.5 L925.3,104.5 L925.3,66.6 L868.1,66.6 L868.1,23.3 L823.9,23.3 L823.9,66.6 L823.9,104.5 L823.9,165.8 C823.9,202.8 847.6,225.8 888.3,225.8 C922.5,225.8 948,202.1 946.1,163.6 Z"></path><polygon points="103.7 87.9 156.8 0 207.4 0 125.9 133.7 125.9 221.3 81.6 221.3 81.6 133.7 -2.84217094e-14 0 49.6 0"></polygon></g></svg>