<svg width="96" height="96" viewBox="0 0 96 96" fill="none" xmlns="http://www.w3.org/2000/svg">
  <defs>
    <linearGradient id="g1" x1="10" y1="8" x2="86" y2="88" gradientUnits="userSpaceOnUse">
      <stop offset="0" stop-color="#2563EB"/>
      <stop offset="0.52" stop-color="#14B8A6"/>
      <stop offset="1" stop-color="#22C55E"/>
    </linearGradient>
    <linearGradient id="g2" x1="24" y1="20" x2="72" y2="76" gradientUnits="userSpaceOnUse">
      <stop offset="0" stop-color="#0B2343"/>
      <stop offset="1" stop-color="#123C69"/>
    </linearGradient>
  </defs>
  <rect width="96" height="96" rx="24" fill="#0B2343"/>
  <path d="M48 8 84 28v40L48 88 12 68V28L48 8Z" fill="url(#g1)"/>
  <path d="M48 18 74 33v30L48 78 22 63V33L48 18Z" fill="white" fill-opacity="0.96"/>
  <path d="M48 26 66 36v10H49l-9 5 9 5h17v8L48 74 28 62V34l20-8Z" fill="url(#g2)"/>
  <path d="M62 46H78V61L62 70V58H52L62 46Z" fill="#22C55E"/>
</svg>
